<svg xmlns="http://www.w3.org/2000/svg" xmlns:xlink="http://www.w3.org/1999/xlink" x="0" y="0" width="701.7391357421875" height="113.47826385498047" style="
        width:701.7391357421875px;
        height:113.47826385498047px;
        background: transparent;
        fill: none;
">
        <svg xmlns="http://www.w3.org/2000/svg"/>
        
        <svg xmlns="http://www.w3.org/2000/svg" class="role-diagram-draw-area" style="overflow: visible;"><g class="shapes-region" style="stroke: black; fill: none;"><g class="composite-shape"><path class="real" d=" M227.74,31.51 C227.74,22.89 234.72,15.91 243.34,15.91 L299.91,15.91 C308.53,15.91 315.51,22.89 315.51,31.51 L315.51,78.31 C315.51,86.92 308.53,93.91 299.91,93.91 L243.34,93.91 C234.72,93.91 227.74,86.92 227.74,78.31 Z" style="stroke-width: 1; stroke: rgb(0, 0, 0); fill: none; fill-opacity: 1;"/></g><g class="arrow-line"><path class="connection real" stroke-dasharray="" d="  M188.27,38.24 L227.74,38.24" style="stroke: rgb(0, 0, 0); stroke-width: 1; fill: none; fill-opacity: 1;"/></g><g class="arrow-line"><path class="connection real" stroke-dasharray="" d="  M188.27,73.31 L227.74,73.31" style="stroke: rgb(0, 0, 0); stroke-width: 1; fill: none; fill-opacity: 1;"/></g><g class="arrow-line"><path class="connection real" stroke-dasharray="" d="  M316.27,38.24 L355.74,38.24" style="stroke: rgb(0, 0, 0); stroke-width: 1; fill: none; fill-opacity: 1;"/></g><g class="arrow-line"><path class="connection real" stroke-dasharray="" d="  M316.27,73.31 L355.74,73.31" style="stroke: rgb(0, 0, 0); stroke-width: 1; fill: none; fill-opacity: 1;"/></g><g class="composite-shape"><path class="real" d=" M144,24.75 C144,19.92 147.92,16 152.75,16 L179.02,16 C183.85,16 187.77,19.92 187.77,24.75 L187.77,85.25 C187.77,90.08 183.85,94 179.02,94 L152.75,94 C147.92,94 144,90.08 144,85.25 Z" style="stroke-width: 1; stroke: rgb(0, 0, 0); fill: none; fill-opacity: 1;"/></g><g class="arrow-line"><path class="connection real" stroke-dasharray="" d="  M443.27,38.24 L482.74,38.24" style="stroke: rgb(0, 0, 0); stroke-width: 1; fill: none; fill-opacity: 1;"/></g><g class="arrow-line"><path class="connection real" stroke-dasharray="" d="  M443.27,73.31 L482.74,73.31" style="stroke: rgb(0, 0, 0); stroke-width: 1; fill: none; fill-opacity: 1;"/></g><g class="composite-shape"><path class="real" d=" M399,24.75 C399,19.92 402.92,16 407.75,16 L434.02,16 C438.85,16 442.77,19.92 442.77,24.75 L442.77,85.25 C442.77,90.08 438.85,94 434.02,94 L407.75,94 C402.92,94 399,90.08 399,85.25 Z" style="stroke-width: 1; stroke: rgb(0, 0, 0); fill: none; fill-opacity: 1;"/></g><g/></g><g/><g/><g/></svg>
        <svg xmlns="http://www.w3.org/2000/svg" xmlns:xlink="http://www.w3.org/1999/xlink" width="700" height="111.7391357421875" style="width:700px;height:111.7391357421875px;font-family:LatinModern-Math, LatinModern, Asana-Math, Asana;background:transparent;"><g><g><g><text x="239.72824096679688" y="37.60870361328125" style="white-space:pre;stroke:none;fill:rgb(0,0,0);fill-opacity:1;font-size:15px;font-family:Arial, Helvetica, sans-serif;font-weight:400;font-style:normal;dominant-baseline:text-before-edge;text-decoration:none;">Quantum </text></g></g><g><g><text x="239.72824096679688" y="59.34783935546875" style="white-space:pre;stroke:none;fill:rgb(0,0,0);fill-opacity:1;font-size:15px;font-family:Arial, Helvetica, sans-serif;font-weight:400;font-style:normal;dominant-baseline:text-before-edge;text-decoration:none;">Channel</text></g></g></g><g><g><g><g transform="matrix(1,0,0,1,159.86410522460938,60.59456787109375)"><path transform="matrix(0.0216,0,0,-0.0216,0,0)" d="M502 279C502 385 436 442 363 442C266 442 161 342 131 220L33 -173C30 -185 30 -189 30 -189C30 -204 41 -216 58 -216C79 -216 91 -198 93 -195C98 -186 130 -52 157 56C177 16 209 -11 256 -11C373 -11 502 130 502 279ZM430 322C430 267 401 155 374 106C341 43 293 11 255 11C185 11 169 91 169 100C169 104 174 124 177 137C205 249 215 285 237 325C280 398 330 420 361 420C398 420 430 391 430 322Z" stroke="rgb(0,0,0)" stroke-opacity="1" stroke-width="8" fill="rgb(0,0,0)" fill-opacity="1"></path></g></g></g></g><g><g><g><g transform="matrix(1,0,0,1,372.3233947753906,63.597283935546876)"><path transform="matrix(0.0216,0,0,-0.0216,0,0)" d="M722 347C722 358 713 367 702 367L76 367C65 367 56 358 56 347C56 336 65 327 76 327L702 327C713 327 722 336 722 347ZM722 153C722 164 713 173 702 173L76 173C65 173 56 164 56 153C56 142 65 133 76 133L702 133C713 133 722 142 722 153Z" stroke="rgb(0,0,0)" stroke-opacity="1" stroke-width="8" fill="rgb(0,0,0)" fill-opacity="1"></path></g></g></g></g><g><g><g><g transform="matrix(1,0,0,1,414.8641662597656,60.59456787109375)"><path transform="matrix(0.0216,0,0,-0.0216,0,0)" d="M502 279C502 385 436 442 363 442C266 442 161 342 131 220L33 -173C30 -185 30 -189 30 -189C30 -204 41 -216 58 -216C79 -216 91 -198 93 -195C98 -186 130 -52 157 56C177 16 209 -11 256 -11C373 -11 502 130 502 279ZM430 322C430 267 401 155 374 106C341 43 293 11 255 11C185 11 169 91 169 100C169 104 174 124 177 137C205 249 215 285 237 325C280 398 330 420 361 420C398 420 430 391 430 322ZM691 670C693 690 676 705 656 705C636 705 619 690 621 670L643 423L669 423Z" stroke="rgb(0,0,0)" stroke-opacity="1" stroke-width="8" fill="rgb(0,0,0)" fill-opacity="1"></path></g></g></g></g></svg>
</svg>
