<svg xmlns="http://www.w3.org/2000/svg" xmlns:xlink="http://www.w3.org/1999/xlink" x="0" y="0" width="661.6000366210938" height="248.8000030517578" style="
        width:661.6000366210938px;
        height:248.8000030517578px;
        background: transparent;
        fill: none;
">
        <svg xmlns="http://www.w3.org/2000/svg"/>
        
        <svg xmlns="http://www.w3.org/2000/svg" class="role-diagram-draw-area"><g class="shapes-region" style="stroke: black; fill: none;"><g class="composite-shape"><path class="real" d=" M380.88,227.68 L370.93,237.79 L343.9,238 L343.69,210.81 L353.64,200.7 L380.67,200.48 Z" style="stroke-width: 1; stroke: rgb(0, 0, 0); fill: rgb(126, 211, 33); fill-opacity: 1; stroke-dasharray: 6, 6;"/><path class="real" d=" M343.9,238 L353.85,227.89 L380.88,227.68" style="stroke-width: 1; stroke: rgb(0, 0, 0); fill: none; fill-opacity: 1; stroke-dasharray: 6, 6;"/><path class="real" d=" M353.85,227.89 L353.64,200.7" style="stroke-width: 1; stroke: rgb(0, 0, 0); fill: none; fill-opacity: 1; stroke-dasharray: 6, 6;"/></g><g class="composite-shape"><path class="real" d=" M412.88,114.68 L402.93,124.79 L375.9,125 L375.69,97.81 L385.64,87.7 L412.67,87.48 Z" style="stroke-width: 1; stroke: rgb(0, 0, 0); fill: rgb(245, 166, 35); fill-opacity: 1; stroke-dasharray: 6, 6;"/><path class="real" d=" M375.9,125 L385.85,114.89 L412.88,114.68" style="stroke-width: 1; stroke: rgb(0, 0, 0); fill: none; fill-opacity: 1; stroke-dasharray: 6, 6;"/><path class="real" d=" M385.85,114.89 L385.64,87.7" style="stroke-width: 1; stroke: rgb(0, 0, 0); fill: none; fill-opacity: 1; stroke-dasharray: 6, 6;"/></g><g class="grouped-shape"><g class="composite-shape"><path class="real" d=" M311.82,24.91 L311.82,152.89 L267.77,196.99 L267.77,69 Z" style="stroke-width: 1; stroke: rgb(0, 0, 0); fill: rgb(184, 233, 134); fill-opacity: 1;"/></g><g class="composite-shape"><path class="real" d=" M137.85,68.75 L268.1,68.75 L268.1,196.74 L137.85,196.74 Z" style="stroke-width: 1; stroke: rgb(0, 0, 0); fill: rgb(80, 227, 194); fill-opacity: 1;"/></g><g class="composite-shape"><path class="real" d=" M182.23,24.66 L311.73,24.66 L267.56,68.23 L138.06,68.23 Z" style="stroke-width: 1; stroke: rgb(0, 0, 0); fill: rgb(248, 231, 28); fill-opacity: 1;"/></g><g class="composite-shape"><path class="real" d=" M137.85,68.25 L181.44,24.66 L311.73,24.66 L311.73,153.15 L268.14,196.74 L137.85,196.74 Z" style="stroke-width: 2; stroke: rgb(0, 0, 0); fill: none; fill-opacity: 1;"/><path class="real" d=" M311.73,24.66 L268.14,68.25 L137.85,68.25" style="stroke-width: 2; stroke: rgb(0, 0, 0); fill: none; fill-opacity: 1;"/><path class="real" d=" M268.14,68.25 L268.14,196.74" style="stroke-width: 2; stroke: rgb(0, 0, 0); fill: none; fill-opacity: 1;"/></g><g class="composite-shape"><path class="real" d=" M311.55,153.28 L267.75,196.9 L137.58,196.63 L137.85,68.25 L181.65,24.64 L311.82,24.91 Z" style="stroke-width: 1; stroke: rgb(0, 0, 0); fill: none; fill-opacity: 1; stroke-dasharray: 6, 6;"/><path class="real" d=" M137.58,196.63 L181.38,153.01 L311.55,153.28" style="stroke-width: 1; stroke: rgb(0, 0, 0); fill: none; fill-opacity: 1; stroke-dasharray: 6, 6;"/><path class="real" d=" M181.38,153.01 L181.65,24.64" style="stroke-width: 1; stroke: rgb(0, 0, 0); fill: none; fill-opacity: 1; stroke-dasharray: 6, 6;"/></g><g class="composite-shape"><path class="real" d=" M306.03,24.91 C306.03,21.74 308.62,19.17 311.82,19.17 C315.03,19.17 317.62,21.74 317.62,24.91 C317.62,28.07 315.03,30.64 311.82,30.64 C308.62,30.64 306.03,28.07 306.03,24.91 Z" style="stroke-width: 1; stroke: rgb(0, 0, 0); fill: rgb(0, 0, 0); fill-opacity: 1;"/></g><g class="composite-shape"><path class="real" d=" M261.88,68.25 C261.88,65.09 264.48,62.52 267.68,62.52 C270.88,62.52 273.48,65.09 273.48,68.25 C273.48,71.42 270.88,73.99 267.68,73.99 C264.48,73.99 261.88,71.42 261.88,68.25 Z" style="stroke-width: 1; stroke: rgb(0, 0, 0); fill: rgb(0, 0, 0); fill-opacity: 1;"/></g><g class="composite-shape"><path class="real" d=" M176.31,24.64 C176.31,21.47 178.9,18.9 182.11,18.9 C185.31,18.9 187.9,21.47 187.9,24.64 C187.9,27.8 185.31,30.37 182.11,30.37 C178.9,30.37 176.31,27.8 176.31,24.64 Z" style="stroke-width: 1; stroke: rgb(0, 0, 0); fill: rgb(0, 0, 0); fill-opacity: 1;"/></g><g class="composite-shape"><path class="real" d=" M132.05,68.25 C132.05,65.09 134.64,62.52 137.85,62.52 C141.05,62.52 143.64,65.09 143.64,68.25 C143.64,71.42 141.05,73.99 137.85,73.99 C134.64,73.99 132.05,71.42 132.05,68.25 Z" style="stroke-width: 1; stroke: rgb(0, 0, 0); fill: rgb(0, 0, 0); fill-opacity: 1;"/></g><g class="composite-shape"><path class="real" d=" M261.88,196.74 C261.88,193.58 264.48,191.01 267.68,191.01 C270.88,191.01 273.48,193.58 273.48,196.74 C273.48,199.91 270.88,202.48 267.68,202.48 C264.48,202.48 261.88,199.91 261.88,196.74 Z" style="stroke-width: 1; stroke: rgb(0, 0, 0); fill: rgb(0, 0, 0); fill-opacity: 1;"/></g><g class="composite-shape"><path class="real" d=" M305.76,153.28 C305.76,150.11 308.35,147.54 311.55,147.54 C314.75,147.54 317.35,150.11 317.35,153.28 C317.35,156.45 314.75,159.02 311.55,159.02 C308.35,159.02 305.76,156.45 305.76,153.28 Z" style="stroke-width: 1; stroke: rgb(0, 0, 0); fill: rgb(0, 0, 0); fill-opacity: 1;"/></g><g class="composite-shape"><path class="real" d=" M176.04,153.01 C176.04,149.84 178.63,147.27 181.83,147.27 C185.04,147.27 187.63,149.84 187.63,153.01 C187.63,156.18 185.04,158.75 181.83,158.75 C178.63,158.75 176.04,156.18 176.04,153.01 Z" style="stroke-width: 1; stroke: rgb(0, 0, 0); fill: rgb(0, 0, 0); fill-opacity: 1;"/></g><g class="composite-shape"><path class="real" d=" M132.05,196.74 C132.05,193.58 134.64,191.01 137.85,191.01 C141.05,191.01 143.64,193.58 143.64,196.74 C143.64,199.91 141.05,202.48 137.85,202.48 C134.64,202.48 132.05,199.91 132.05,196.74 Z" style="stroke-width: 1; stroke: rgb(0, 0, 0); fill: rgb(0, 0, 0); fill-opacity: 1;"/></g></g><g class="composite-shape"><path class="real" d=" M398.88,199.16 L425.35,199.16 L416.32,207.79 L389.86,207.79 Z" style="stroke-width: 1; stroke: rgb(0, 0, 0); fill: rgb(248, 231, 28); fill-opacity: 1;"/></g><g class="composite-shape"><path class="real" d=" M389.56,210.33 L415.73,210.33 L415.73,237.56 L389.56,237.56 Z" style="stroke-width: 1; stroke: rgb(0, 0, 0); fill: rgb(80, 227, 194); fill-opacity: 1;"/></g><g class="composite-shape"><path class="real" d=" M427.43,200.87 L427.43,227.33 L418.3,236.87 L418.3,210.41 Z" style="stroke-width: 1; stroke: rgb(0, 0, 0); fill: rgb(184, 233, 134); fill-opacity: 1;"/></g><g class="composite-shape"><path class="real" d=" M343.9,210.8 L353.93,200.77 L380.96,200.77 L380.96,227.97 L370.93,238 L343.9,238 Z" style="stroke-width: 2; stroke: rgb(0, 0, 0); fill: none; fill-opacity: 1;"/><path class="real" d=" M380.96,200.77 L370.93,210.8 L343.9,210.8" style="stroke-width: 2; stroke: rgb(0, 0, 0); fill: none; fill-opacity: 1;"/><path class="real" d=" M370.93,210.8 L370.93,238" style="stroke-width: 2; stroke: rgb(0, 0, 0); fill: none; fill-opacity: 1;"/></g><g class="composite-shape"><path class="real" d=" M389.67,18.33 C389.67,15.57 391.91,13.33 394.67,13.33 C397.43,13.33 399.67,15.57 399.67,18.33 C399.67,21.09 397.43,23.33 394.67,23.33 C391.91,23.33 389.67,21.09 389.67,18.33 Z" style="stroke-width: 1; stroke: rgb(0, 0, 0); fill: rgb(0, 0, 0); fill-opacity: 1;"/></g><g class="composite-shape"><path class="real" d=" M375.9,97.8 L385.93,87.77 L412.96,87.77 L412.96,114.97 L402.93,125 L375.9,125 Z" style="stroke-width: 2; stroke: rgb(0, 0, 0); fill: none; fill-opacity: 1;"/><path class="real" d=" M412.96,87.77 L402.93,97.8 L375.9,97.8" style="stroke-width: 2; stroke: rgb(0, 0, 0); fill: none; fill-opacity: 1;"/><path class="real" d=" M402.93,97.8 L402.93,125" style="stroke-width: 2; stroke: rgb(0, 0, 0); fill: none; fill-opacity: 1;"/></g><g/></g><g/><g/><g/></svg>
        <svg xmlns="http://www.w3.org/2000/svg" xmlns:xlink="http://www.w3.org/1999/xlink" width="660" height="247.1999969482422" style="width:660px;height:247.1999969482422px;font-family:LatinModern-Math, LatinModern, Asana-Math, Asana;background:transparent;"><g><g><g><g transform="matrix(1,0,0,1,457.8000183105469,221.79998779296875)"><path transform="matrix(0.015,0,0,-0.015,0,0)" d="M723 674C723 683 718 683 698 683L276 683C252 683 251 682 245 663L190 483C188 478 187 469 187 469C187 469 187 458 199 458C208 458 210 465 212 468C250 586 302 652 458 652L621 652L62 27C62 27 58 12 58 9C58 0 65 0 83 0L518 0C542 0 543 1 549 20L620 241C621 245 624 252 624 256C624 261 620 267 611 267C602 267 601 263 594 242C550 106 502 34 332 34L161 34L720 659C721 663 723 668 723 674Z" stroke="rgb(0,0,0)" stroke-opacity="1" stroke-width="8" fill="rgb(0,0,0)" fill-opacity="1"></path></g></g><g><g><g><g><text x="473.0249938964844" y="208.39999389648438" style="white-space:pre;stroke:none;fill:rgb(0,0,0);fill-opacity:1;font-size:15px;font-family:&quot;Times New Roman&quot;, Times, serif;font-weight:400;font-style:normal;dominant-baseline:text-before-edge;text-decoration:none;">stabilizers</text></g></g></g></g></g></g><g><g><g><g transform="matrix(1,0,0,1,457.8000183105469,112.46249389648438)"><path transform="matrix(0.015,0,0,-0.015,0,0)" d="M851 672C851 672 851 683 838 683C808 683 775 680 744 680C707 680 669 683 633 683C627 683 614 683 614 663C614 656 619 653 626 652C635 651 666 649 666 621C666 607 655 594 647 585L485 411L401 610L396 623C396 629 413 648 455 652C465 653 475 654 475 671C475 683 463 683 460 683C419 683 376 680 334 680C309 680 247 683 222 683C216 683 204 683 204 663C204 652 214 652 227 652C287 652 293 642 302 620L420 341L209 114C203 109 202 108 196 103C147 50 100 34 49 31C36 30 27 30 27 11C27 11 27 0 40 0C70 0 103 3 134 3C171 3 210 0 246 0C252 0 264 0 264 20C264 30 252 31 252 31C243 32 212 34 212 62C212 78 227 94 239 107L341 215L431 313L532 74L537 60C537 52 518 35 479 31C468 30 459 29 459 12C459 0 470 0 474 0L600 3C625 3 686 0 711 0C718 0 730 0 730 19C730 31 720 31 712 31C645 32 643 35 626 75L497 384C565 454 670 573 702 601C731 625 769 649 829 652C842 653 851 653 851 672Z" stroke="rgb(0,0,0)" stroke-opacity="1" stroke-width="8" fill="rgb(0,0,0)" fill-opacity="1"></path></g></g><g><g><g><g><text x="475.1999816894531" y="99.0625" style="white-space:pre;stroke:none;fill:rgb(0,0,0);fill-opacity:1;font-size:15px;font-family:&quot;Times New Roman&quot;, Times, serif;font-weight:400;font-style:normal;dominant-baseline:text-before-edge;text-decoration:none;">stabilizers</text></g></g></g></g></g></g><g><g><g><text x="457.8000183105469" y="6.725006103515625" style="white-space:pre;stroke:none;fill:rgb(0,0,0);fill-opacity:1;font-size:15px;font-family:&quot;Times New Roman&quot;, Times, serif;font-weight:400;font-style:normal;dominant-baseline:text-before-edge;text-decoration:none;">Data qubits</text></g></g></g><g><g><g><text x="256.5249938964844" y="71.23748779296875" style="white-space:pre;stroke:none;fill:rgb(0,0,0);fill-opacity:1;font-size:15px;font-family:Arial, Helvetica, sans-serif;font-weight:400;font-style:normal;dominant-baseline:text-before-edge;text-decoration:none;">1</text></g></g></g><g><g><g><text x="256.5249938964844" y="201.25" style="white-space:pre;stroke:none;fill:rgb(0,0,0);fill-opacity:1;font-size:15px;font-family:Arial, Helvetica, sans-serif;font-weight:400;font-style:normal;dominant-baseline:text-before-edge;text-decoration:none;">2</text></g></g></g><g><g><g><text x="127.07498168945312" y="72.64999389648438" style="white-space:pre;stroke:none;fill:rgb(0,0,0);fill-opacity:1;font-size:15px;font-family:Arial, Helvetica, sans-serif;font-weight:400;font-style:normal;dominant-baseline:text-before-edge;text-decoration:none;">3</text></g></g></g><g><g><g><text x="141.48751831054688" y="200.63748168945312" style="white-space:pre;stroke:none;fill:rgb(0,0,0);fill-opacity:1;font-size:15px;font-family:Arial, Helvetica, sans-serif;font-weight:400;font-style:normal;dominant-baseline:text-before-edge;text-decoration:none;">4</text></g></g></g><g><g><g><text x="315.6374816894531" y="28.67498779296875" style="white-space:pre;stroke:none;fill:rgb(0,0,0);fill-opacity:1;font-size:15px;font-family:Arial, Helvetica, sans-serif;font-weight:400;font-style:normal;dominant-baseline:text-before-edge;text-decoration:none;">5</text></g></g></g><g><g><g><text x="315.4624938964844" y="157.28750610351562" style="white-space:pre;stroke:none;fill:rgb(0,0,0);fill-opacity:1;font-size:15px;font-family:Arial, Helvetica, sans-serif;font-weight:400;font-style:normal;dominant-baseline:text-before-edge;text-decoration:none;">6</text></g></g></g><g><g><g><text x="186.01248168945312" y="28.649993896484375" style="white-space:pre;stroke:none;fill:rgb(0,0,0);fill-opacity:1;font-size:15px;font-family:Arial, Helvetica, sans-serif;font-weight:400;font-style:normal;dominant-baseline:text-before-edge;text-decoration:none;">7</text></g></g></g><g><g><g><text x="185.73751831054688" y="157.02499389648438" style="white-space:pre;stroke:none;fill:rgb(0,0,0);fill-opacity:1;font-size:15px;font-family:Arial, Helvetica, sans-serif;font-weight:400;font-style:normal;dominant-baseline:text-before-edge;text-decoration:none;">8</text></g></g></g></svg>
</svg>
