<svg xmlns="http://www.w3.org/2000/svg" xmlns:xlink="http://www.w3.org/1999/xlink" x="0" y="0" width="661.6000366210938" height="243.8000030517578" style="
        width:661.6000366210938px;
        height:243.8000030517578px;
        background: transparent;
        fill: none;
">
        <svg xmlns="http://www.w3.org/2000/svg"/>
        
        <svg xmlns="http://www.w3.org/2000/svg" class="role-diagram-draw-area"><g class="shapes-region" style="stroke: black; fill: none;"><g class="grouped-shape"><g class="shape"><polygon class="real" points=" 272.85,120.89 327.36,211.54 218.33,211.54 218.33,151.38" style="stroke: rgb(0, 0, 0); stroke-width: 1; fill: rgb(184, 233, 134); fill-opacity: 1;"/></g><g class="shape"><polygon class="real" points=" 272.85,120.89 218.33,151.38 163.82,121.23 218.33,30.93" style="stroke: rgb(0, 0, 0); stroke-width: 1; fill: rgb(248, 231, 28); fill-opacity: 1;"/></g><g class="shape"><polygon class="real" points=" 218.33,151.38 218.33,211.54 109.31,211.54 163.82,121.23" style="stroke: rgb(0, 0, 0); stroke-width: 1; fill: rgb(80, 227, 194); fill-opacity: 1;"/></g><g class="composite-shape"><path class="real" d=" M218.33,30.93 L327.36,211.54 L109.31,211.54 Z" style="stroke-width: 1; stroke: rgb(0, 0, 0); fill: none; fill-opacity: 1;"/></g><g class="composite-shape"><path class="real" d=" M211.06,30.93 C211.06,27.09 214.32,23.98 218.33,23.98 C222.35,23.98 225.6,27.09 225.6,30.93 C225.6,34.76 222.35,37.87 218.33,37.87 C214.32,37.87 211.06,34.76 211.06,30.93 Z" style="stroke-width: 1; stroke: rgb(0, 0, 0); fill: rgb(0, 0, 0); fill-opacity: 1;"/></g><g class="composite-shape"><path class="real" d=" M102.04,211.54 C102.04,207.7 105.29,204.59 109.31,204.59 C113.32,204.59 116.58,207.7 116.58,211.54 C116.58,215.38 113.32,218.49 109.31,218.49 C105.29,218.49 102.04,215.38 102.04,211.54 Z" style="stroke-width: 1; stroke: rgb(0, 0, 0); fill: rgb(0, 0, 0); fill-opacity: 1;"/></g><g class="composite-shape"><path class="real" d=" M320.09,211.54 C320.09,207.7 323.35,204.59 327.36,204.59 C331.37,204.59 334.63,207.7 334.63,211.54 C334.63,215.38 331.37,218.49 327.36,218.49 C323.35,218.49 320.09,215.38 320.09,211.54 Z" style="stroke-width: 1; stroke: rgb(0, 0, 0); fill: rgb(0, 0, 0); fill-opacity: 1;"/></g><g class="composite-shape"><path class="real" d=" M211.06,211.54 C211.06,207.7 214.32,204.59 218.33,204.59 C222.35,204.59 225.6,207.7 225.6,211.54 C225.6,215.38 222.35,218.49 218.33,218.49 C214.32,218.49 211.06,215.38 211.06,211.54 Z" style="stroke-width: 1; stroke: rgb(0, 0, 0); fill: rgb(0, 0, 0); fill-opacity: 1;"/></g><g class="composite-shape"><path class="real" d=" M265.58,120.89 C265.58,117.05 268.83,113.94 272.85,113.94 C276.86,113.94 280.11,117.05 280.11,120.89 C280.11,124.72 276.86,127.83 272.85,127.83 C268.83,127.83 265.58,124.72 265.58,120.89 Z" style="stroke-width: 1; stroke: rgb(0, 0, 0); fill: rgb(0, 0, 0); fill-opacity: 1;"/></g><g class="composite-shape"><path class="real" d=" M156.55,121.23 C156.55,117.4 159.81,114.29 163.82,114.29 C167.83,114.29 171.09,117.4 171.09,121.23 C171.09,125.07 167.83,128.18 163.82,128.18 C159.81,128.18 156.55,125.07 156.55,121.23 Z" style="stroke-width: 1; stroke: rgb(0, 0, 0); fill: rgb(0, 0, 0); fill-opacity: 1;"/></g><g class="composite-shape"><path class="real" d=" M211.06,151.38 C211.06,147.55 214.32,144.44 218.33,144.44 C222.35,144.44 225.6,147.55 225.6,151.38 C225.6,155.22 222.35,158.33 218.33,158.33 C214.32,158.33 211.06,155.22 211.06,151.38 Z" style="stroke-width: 1; stroke: rgb(0, 0, 0); fill: rgb(0, 0, 0); fill-opacity: 1;"/></g></g><g class="composite-shape"><path class="real" d=" M387.67,92.33 C387.67,89.57 389.91,87.33 392.67,87.33 C395.43,87.33 397.67,89.57 397.67,92.33 C397.67,95.09 395.43,97.33 392.67,97.33 C389.91,97.33 387.67,95.09 387.67,92.33 Z" style="stroke-width: 1; stroke: rgb(0, 0, 0); fill: rgb(0, 0, 0); fill-opacity: 1;"/></g><g class="grouped-shape"><g class="shape"><polygon class="real" points=" 408.48,158.8 421.6,182.35 396.28,182.37 396.15,166.83" style="stroke: rgb(0, 0, 0); stroke-width: 1; fill: rgb(184, 233, 134); fill-opacity: 1;"/></g><g class="shape"><polygon class="real" points=" 405.84,153.66 393.64,161.3 380.55,154.32 393.3,131" style="stroke: rgb(0, 0, 0); stroke-width: 1; fill: rgb(248, 231, 28); fill-opacity: 1;"/></g><g class="shape"><polygon class="real" points=" 391.37,166.83 391.5,182.37 365,182.35 377.66,159.46" style="stroke: rgb(0, 0, 0); stroke-width: 1; fill: rgb(80, 227, 194); fill-opacity: 1;"/></g></g><g/></g><g/><g/><g/></svg>
        <svg xmlns="http://www.w3.org/2000/svg" xmlns:xlink="http://www.w3.org/1999/xlink" width="660" height="242.1999969482422" style="width:660px;height:242.1999969482422px;font-family:LatinModern-Math, LatinModern, Asana-Math, Asana;background:transparent;"><g><g><g><text x="455.8000183105469" y="80.72500610351562" style="white-space:pre;stroke:none;fill:rgb(0,0,0);fill-opacity:1;font-size:15px;font-family:&quot;Times New Roman&quot;, Times, serif;font-weight:400;font-style:normal;dominant-baseline:text-before-edge;text-decoration:none;">Data qubits</text></g></g></g><g><g><g><g transform="matrix(1,0,0,1,454.8000183105469,167.80001831054688)"><path transform="matrix(0.015,0,0,-0.015,0,0)" d="M723 674C723 683 718 683 698 683L276 683C252 683 251 682 245 663L190 483C188 478 187 469 187 469C187 469 187 458 199 458C208 458 210 465 212 468C250 586 302 652 458 652L621 652L62 27C62 27 58 12 58 9C58 0 65 0 83 0L518 0C542 0 543 1 549 20L620 241C621 245 624 252 624 256C624 261 620 267 611 267C602 267 601 263 594 242C550 106 502 34 332 34L161 34L720 659C721 663 723 668 723 674Z" stroke="rgb(0,0,0)" stroke-opacity="1" stroke-width="8" fill="rgb(0,0,0)" fill-opacity="1"></path></g></g><g><g><g><g><text x="470.0249938964844" y="154.39999389648438" style="white-space:pre;stroke:none;fill:rgb(0,0,0);fill-opacity:1;font-size:15px;font-family:&quot;Times New Roman&quot;, Times, serif;font-weight:400;font-style:normal;dominant-baseline:text-before-edge;text-decoration:none;">and</text></g></g></g></g><g><g transform="matrix(1,0,0,1,491.6875305175781,167.80001831054688)"><path transform="matrix(0.015,0,0,-0.015,0,0)" d="M1183 672C1183 672 1183 683 1170 683C1140 683 1107 680 1076 680C1039 680 1001 683 965 683C959 683 946 683 946 663C946 656 951 653 958 652C967 651 998 649 998 621C998 607 987 594 979 585L817 411L733 610L728 623C728 629 745 648 787 652C797 653 807 654 807 671C807 683 795 683 792 683C751 683 708 680 666 680C641 680 579 683 554 683C548 683 536 683 536 663C536 652 546 652 559 652C619 652 625 642 634 620L752 341L541 114C535 109 534 108 528 103C479 50 432 34 381 31C368 30 359 30 359 11C359 11 359 0 372 0C402 0 435 3 466 3C503 3 542 0 578 0C584 0 596 0 596 20C596 30 584 31 584 31C575 32 544 34 544 62C544 78 559 94 571 107L673 215L763 313L864 74L869 60C869 52 850 35 811 31C800 30 791 29 791 12C791 0 802 0 806 0L932 3C957 3 1018 0 1043 0C1050 0 1062 0 1062 19C1062 31 1052 31 1044 31C977 32 975 35 958 75L829 384C897 454 1002 573 1034 601C1063 625 1101 649 1161 652C1174 653 1183 653 1183 672Z" stroke="rgb(0,0,0)" stroke-opacity="1" stroke-width="8" fill="rgb(0,0,0)" fill-opacity="1"></path></g></g><g><g><g><g><text x="509.0874938964844" y="154.39999389648438" style="white-space:pre;stroke:none;fill:rgb(0,0,0);fill-opacity:1;font-size:15px;font-family:&quot;Times New Roman&quot;, Times, serif;font-weight:400;font-style:normal;dominant-baseline:text-before-edge;text-decoration:none;"> stabilizers</text></g></g></g></g></g></g><g><g><g><text x="224.30001831054688" y="158.0625" style="white-space:pre;stroke:none;fill:rgb(0,0,0);fill-opacity:1;font-size:15px;font-family:Arial, Helvetica, sans-serif;font-weight:400;font-style:normal;dominant-baseline:text-before-edge;text-decoration:none;">7</text></g></g></g><g><g><g><text x="213.50003051757812" y="3.6500091552734375" style="white-space:pre;stroke:none;fill:rgb(0,0,0);fill-opacity:1;font-size:15px;font-family:Arial, Helvetica, sans-serif;font-weight:400;font-style:normal;dominant-baseline:text-before-edge;text-decoration:none;">4</text></g></g></g><g><g><g><text x="268.3249816894531" y="131.46249389648438" style="white-space:pre;stroke:none;fill:rgb(0,0,0);fill-opacity:1;font-size:15px;font-family:Arial, Helvetica, sans-serif;font-weight:400;font-style:normal;dominant-baseline:text-before-edge;text-decoration:none;">6</text></g></g></g><g><g><g><text x="161.17501831054688" y="131.86251831054688" style="white-space:pre;stroke:none;fill:rgb(0,0,0);fill-opacity:1;font-size:15px;font-family:Arial, Helvetica, sans-serif;font-weight:400;font-style:normal;dominant-baseline:text-before-edge;text-decoration:none;">5</text></g></g></g><g><g><g><text x="105.51251220703125" y="221.96249389648438" style="white-space:pre;stroke:none;fill:rgb(0,0,0);fill-opacity:1;font-size:15px;font-family:Arial, Helvetica, sans-serif;font-weight:400;font-style:normal;dominant-baseline:text-before-edge;text-decoration:none;">1</text></g></g></g><g><g><g><text x="215.16250610351562" y="221.57501220703125" style="white-space:pre;stroke:none;fill:rgb(0,0,0);fill-opacity:1;font-size:15px;font-family:Arial, Helvetica, sans-serif;font-weight:400;font-style:normal;dominant-baseline:text-before-edge;text-decoration:none;">2</text></g></g></g><g><g><g><text x="324.8125305175781" y="221.17501831054688" style="white-space:pre;stroke:none;fill:rgb(0,0,0);fill-opacity:1;font-size:15px;font-family:Arial, Helvetica, sans-serif;font-weight:400;font-style:normal;dominant-baseline:text-before-edge;text-decoration:none;">3</text></g></g></g></svg>
</svg>
