<svg xmlns="http://www.w3.org/2000/svg" xmlns:xlink="http://www.w3.org/1999/xlink" x="0" y="0" width="661.7391357421875" height="171.20924377441406" style="
        width:661.7391357421875px;
        height:171.20924377441406px;
        background: transparent;
        fill: none;
">
        <svg xmlns="http://www.w3.org/2000/svg"/>
        
        <svg xmlns="http://www.w3.org/2000/svg" class="role-diagram-draw-area"><g class="shapes-region" style="stroke: black; fill: none;"><g class="composite-shape"><path class="real" d=" M283.74,60.51 C283.74,51.89 290.72,44.91 299.34,44.91 L360.17,44.91 C368.79,44.91 375.77,51.89 375.77,60.51 L375.77,107.31 C375.77,115.92 368.79,122.91 360.17,122.91 L299.34,122.91 C290.72,122.91 283.74,115.92 283.74,107.31 Z" style="stroke-width: 1; stroke: rgb(0, 0, 0); fill: none; fill-opacity: 1;"/></g><g class="composite-shape"><path class="real" d=" M283.74,67.24 C251.65,62.24 229.74,52.19 229.74,40.61 C229.74,24.04 274.57,10.61 329.87,10.61 C385.17,10.61 430.01,24.04 430.01,40.61 C430.01,52.19 408.09,62.24 376,67.24 L329.87,40.61 Z" style="stroke-width: 1; stroke: none; fill: none; fill-opacity: 1;"/><path class="real" d=" M283.74,67.24 C251.65,62.24 229.74,52.19 229.74,40.61 C229.74,24.04 274.57,10.61 329.87,10.61 C385.17,10.61 430.01,24.04 430.01,40.61 C430.01,52.19 408.09,62.24 376,67.24" style="stroke-width: 1; stroke: rgb(0, 0, 0); fill: none; fill-opacity: 1;"/></g><g class="composite-shape"><path class="real" d=" M376,102.31 C408.09,107.31 430.01,117.36 430.01,128.94 C430.01,145.51 385.17,158.94 329.87,158.94 C274.57,158.94 229.74,145.51 229.74,128.94 C229.74,117.36 251.65,107.31 283.74,102.31 L329.87,128.94 Z" style="stroke-width: 1; stroke: none; fill: none; fill-opacity: 1;"/><path class="real" d=" M376,102.31 C408.09,107.31 430.01,117.36 430.01,128.94 C430.01,145.51 385.17,158.94 329.87,158.94 C274.57,158.94 229.74,145.51 229.74,128.94 C229.74,117.36 251.65,107.31 283.74,102.31" style="stroke-width: 1; stroke: rgb(0, 0, 0); fill: none; fill-opacity: 1;"/></g><g/></g><g/><g/><g/></svg>
        <svg xmlns="http://www.w3.org/2000/svg" xmlns:xlink="http://www.w3.org/1999/xlink" width="660" height="169.47010803222656" style="width:660px;height:169.47010803222656px;font-family:LatinModern-Math, LatinModern, Asana-Math, Asana;background:transparent;"><g><g><g><text x="300.7200927734375" y="66.60324096679688" style="white-space:pre;stroke:none;fill:rgb(0,0,0);fill-opacity:1;font-size:15px;font-family:Arial, Helvetica, sans-serif;font-weight:400;font-style:normal;dominant-baseline:text-before-edge;text-decoration:none;">Quantum </text></g></g><g><g><text x="300.7200927734375" y="88.34237670898438" style="white-space:pre;stroke:none;fill:rgb(0,0,0);fill-opacity:1;font-size:15px;font-family:Arial, Helvetica, sans-serif;font-weight:400;font-style:normal;dominant-baseline:text-before-edge;text-decoration:none;">Channel</text></g></g></g></svg>
</svg>
