<svg xmlns="http://www.w3.org/2000/svg" xmlns:xlink="http://www.w3.org/1999/xlink" x="0" y="0" width="661.6000366210938" height="277" style="
        width:661.6000366210938px;
        height:277px;
        background: transparent;
        fill: none;
">
        <svg xmlns="http://www.w3.org/2000/svg"/>
        
        <svg xmlns="http://www.w3.org/2000/svg" class="role-diagram-draw-area"><g class="shapes-region" style="stroke: black; fill: none;"><g class="composite-shape"><path class="real" d=" M466,15 C466,12.24 468.24,10 471,10 C473.76,10 476,12.24 476,15 C476,17.76 473.76,20 471,20 C468.24,20 466,17.76 466,15 Z" style="stroke-width: 1; stroke: rgb(0, 0, 0); fill: rgb(0, 0, 0); fill-opacity: 1;"/></g><g class="composite-shape"><path class="real" d=" M49,3 L385.67,3 L385.67,272.7 L49,272.7 Z" style="stroke-width: 1; stroke: none; stroke-opacity: 1; fill: none; fill-opacity: 1;"/><path class="real" d=" M49,3 L49,272.7 M129,3 L129,272.7 M209,3 L209,272.7 M289,3 L289,272.7 M369,3 L369,272.7" style="stroke-width: 1; stroke: none; stroke-opacity: 1; fill: none; fill-opacity: 1;"/><path class="real" d=" M49,3 L385.67,3 M49,83 L385.67,83 M49,163 L385.67,163 M49,243 L385.67,243" style="stroke-width: 1; stroke: none; stroke-opacity: 1; fill: none; fill-opacity: 1;"/><path class="real" d=" " style="stroke-width: 1; stroke: none; stroke-opacity: 1; fill: none; fill-opacity: 1;"/></g><g class="composite-shape"><path class="real" d=" M89,43 L329,43 L329,203 L89,203 Z" style="stroke-width: 1; stroke: none; fill: none; fill-opacity: 1;"/><path class="real" d=" M169,43 L169,203 M249,43 L249,203" style="stroke-width: 1; stroke: rgb(0, 0, 0); fill: none; fill-opacity: 1;"/><path class="real" d=" M89,123 L329,123" style="stroke-width: 1; stroke: rgb(0, 0, 0); fill: none; fill-opacity: 1;"/><path class="real" d=" M89,43 L329,43 L329,203 L89,203 Z" style="stroke-width: 1; stroke: rgb(0, 0, 0); fill: none; fill-opacity: 1;"/></g><g class="grouped-shape"><g class="composite-shape"><path class="real" d=" M431,60 L511,60 L511,140 L431,140 Z" style="stroke-width: 1; stroke: rgb(0, 0, 0); fill: none; fill-opacity: 1;"/></g><g class="composite-shape"><path class="real" d=" M466,60 C466,57.24 468.24,55 471,55 C473.76,55 476,57.24 476,60 C476,62.76 473.76,65 471,65 C468.24,65 466,62.76 466,60 Z" style="stroke-width: 1; stroke: rgb(0, 0, 0); fill: rgb(0, 0, 0); fill-opacity: 1;"/></g><g class="composite-shape"><path class="real" d=" M426,100 C426,97.24 428.24,95 431,95 C433.76,95 436,97.24 436,100 C436,102.76 433.76,105 431,105 C428.24,105 426,102.76 426,100 Z" style="stroke-width: 1; stroke: rgb(0, 0, 0); fill: rgb(0, 0, 0); fill-opacity: 1;"/></g><g class="composite-shape"><path class="real" d=" M506,100 C506,97.24 508.24,95 511,95 C513.76,95 516,97.24 516,100 C516,102.76 513.76,105 511,105 C508.24,105 506,102.76 506,100 Z" style="stroke-width: 1; stroke: rgb(0, 0, 0); fill: rgb(0, 0, 0); fill-opacity: 1;"/></g><g class="composite-shape"><path class="real" d=" M466,140 C466,137.24 468.24,135 471,135 C473.76,135 476,137.24 476,140 C476,142.76 473.76,145 471,145 C468.24,145 466,142.76 466,140 Z" style="stroke-width: 1; stroke: rgb(0, 0, 0); fill: rgb(0, 0, 0); fill-opacity: 1;"/></g></g><g class="grouped-shape"><g class="arrow-line"><path class="connection real" stroke-dasharray="" d="  M431,220 L511,220" style="stroke: rgb(0, 0, 0); stroke-width: 1; fill: none; fill-opacity: 1;"/></g><g class="arrow-line"><path class="connection real" stroke-dasharray="" d="  M471,260 L471,180" style="stroke: rgb(0, 0, 0); stroke-width: 1; fill: none; fill-opacity: 1;"/></g><g class="composite-shape"><path class="real" d=" M466,180 C466,177.24 468.24,175 471,175 C473.76,175 476,177.24 476,180 C476,182.76 473.76,185 471,185 C468.24,185 466,182.76 466,180 Z" style="stroke-width: 1; stroke: rgb(0, 0, 0); fill: rgb(0, 0, 0); fill-opacity: 1;"/></g><g class="composite-shape"><path class="real" d=" M426,220 C426,217.24 428.24,215 431,215 C433.76,215 436,217.24 436,220 C436,222.76 433.76,225 431,225 C428.24,225 426,222.76 426,220 Z" style="stroke-width: 1; stroke: rgb(0, 0, 0); fill: rgb(0, 0, 0); fill-opacity: 1;"/></g><g class="composite-shape"><path class="real" d=" M506,220 C506,217.24 508.24,215 511,215 C513.76,215 516,217.24 516,220 C516,222.76 513.76,225 511,225 C508.24,225 506,222.76 506,220 Z" style="stroke-width: 1; stroke: rgb(0, 0, 0); fill: rgb(0, 0, 0); fill-opacity: 1;"/></g><g class="composite-shape"><path class="real" d=" M466,260 C466,257.24 468.24,255 471,255 C473.76,255 476,257.24 476,260 C476,262.76 473.76,265 471,265 C468.24,265 466,262.76 466,260 Z" style="stroke-width: 1; stroke: rgb(0, 0, 0); fill: rgb(0, 0, 0); fill-opacity: 1;"/></g></g><g class="intersections-group"><g style="stroke: rgb(0, 0, 0); stroke-width: 1; fill: rgb(0, 0, 0); fill-opacity: 1;"><g><g class="intersection-group"><g><circle cx="129" cy="123" r="5"/><circle cx="129" cy="123" r="5" style="stroke: transparent; stroke-width: 6; fill: none;"/></g><g><circle cx="129" cy="43" r="5"/><circle cx="129" cy="43" r="5" style="stroke: transparent; stroke-width: 6; fill: none;"/></g><g><circle cx="129" cy="203" r="5"/><circle cx="129" cy="203" r="5" style="stroke: transparent; stroke-width: 6; fill: none;"/></g><g><circle cx="209" cy="123" r="5"/><circle cx="209" cy="123" r="5" style="stroke: transparent; stroke-width: 6; fill: none;"/></g><g><circle cx="209" cy="43" r="5"/><circle cx="209" cy="43" r="5" style="stroke: transparent; stroke-width: 6; fill: none;"/></g><g><circle cx="209" cy="203" r="5"/><circle cx="209" cy="203" r="5" style="stroke: transparent; stroke-width: 6; fill: none;"/></g><g><circle cx="289" cy="123" r="5"/><circle cx="289" cy="123" r="5" style="stroke: transparent; stroke-width: 6; fill: none;"/></g><g><circle cx="289" cy="43" r="5"/><circle cx="289" cy="43" r="5" style="stroke: transparent; stroke-width: 6; fill: none;"/></g><g><circle cx="289" cy="203" r="5"/><circle cx="289" cy="203" r="5" style="stroke: transparent; stroke-width: 6; fill: none;"/></g><g><circle cx="169" cy="83" r="5"/><circle cx="169" cy="83" r="5" style="stroke: transparent; stroke-width: 6; fill: none;"/></g><g><circle cx="248.99999999999997" cy="83" r="5"/><circle cx="248.99999999999997" cy="83" r="5" style="stroke: transparent; stroke-width: 6; fill: none;"/></g><g><circle cx="329" cy="83" r="5"/><circle cx="329" cy="83" r="5" style="stroke: transparent; stroke-width: 6; fill: none;"/></g><g><circle cx="89" cy="83" r="5"/><circle cx="89" cy="83" r="5" style="stroke: transparent; stroke-width: 6; fill: none;"/></g><g><circle cx="169" cy="163" r="5"/><circle cx="169" cy="163" r="5" style="stroke: transparent; stroke-width: 6; fill: none;"/></g><g><circle cx="248.99999999999997" cy="163" r="5"/><circle cx="248.99999999999997" cy="163" r="5" style="stroke: transparent; stroke-width: 6; fill: none;"/></g><g><circle cx="329" cy="163" r="5"/><circle cx="329" cy="163" r="5" style="stroke: transparent; stroke-width: 6; fill: none;"/></g><g><circle cx="89" cy="163" r="5"/><circle cx="89" cy="163" r="5" style="stroke: transparent; stroke-width: 6; fill: none;"/></g></g></g></g></g></g><g/><g/><g/></svg>
        <svg xmlns="http://www.w3.org/2000/svg" xmlns:xlink="http://www.w3.org/1999/xlink" width="660" height="275.3999938964844" style="width:660px;height:275.3999938964844px;font-family:LatinModern-Math, LatinModern, Asana-Math, Asana;background:transparent;"><g><g><g><text x="534.7999877929688" y="2.399993896484375" style="white-space:pre;stroke:none;fill:rgb(0,0,0);fill-opacity:1;font-size:15px;font-family:&quot;Times New Roman&quot;, Times, serif;font-weight:400;font-style:normal;dominant-baseline:text-before-edge;text-decoration:none;">Data qubits</text></g></g></g><g><g><g><g transform="matrix(1,0,0,1,530.7999877929688,103.79998779296875)"><path transform="matrix(0.015,0,0,-0.015,0,0)" d="M851 672C851 672 851 683 838 683C808 683 775 680 744 680C707 680 669 683 633 683C627 683 614 683 614 663C614 656 619 653 626 652C635 651 666 649 666 621C666 607 655 594 647 585L485 411L401 610L396 623C396 629 413 648 455 652C465 653 475 654 475 671C475 683 463 683 460 683C419 683 376 680 334 680C309 680 247 683 222 683C216 683 204 683 204 663C204 652 214 652 227 652C287 652 293 642 302 620L420 341L209 114C203 109 202 108 196 103C147 50 100 34 49 31C36 30 27 30 27 11C27 11 27 0 40 0C70 0 103 3 134 3C171 3 210 0 246 0C252 0 264 0 264 20C264 30 252 31 252 31C243 32 212 34 212 62C212 78 227 94 239 107L341 215L431 313L532 74L537 60C537 52 518 35 479 31C468 30 459 29 459 12C459 0 470 0 474 0L600 3C625 3 686 0 711 0C718 0 730 0 730 19C730 31 720 31 712 31C645 32 643 35 626 75L497 384C565 454 670 573 702 601C731 625 769 649 829 652C842 653 851 653 851 672Z" stroke="rgb(0,0,0)" stroke-opacity="1" stroke-width="8" fill="rgb(0,0,0)" fill-opacity="1"></path></g></g><g><g><g><g><text x="548.2000122070312" y="90.39999389648438" style="white-space:pre;stroke:none;fill:rgb(0,0,0);fill-opacity:1;font-size:15px;font-family:&quot;Times New Roman&quot;, Times, serif;font-weight:400;font-style:normal;dominant-baseline:text-before-edge;text-decoration:none;">stabilizers</text></g></g></g></g></g></g><g><g><g><g transform="matrix(1,0,0,1,530.7999877929688,222.8000030517578)"><path transform="matrix(0.015,0,0,-0.015,0,0)" d="M723 674C723 683 718 683 698 683L276 683C252 683 251 682 245 663L190 483C188 478 187 469 187 469C187 469 187 458 199 458C208 458 210 465 212 468C250 586 302 652 458 652L621 652L62 27C62 27 58 12 58 9C58 0 65 0 83 0L518 0C542 0 543 1 549 20L620 241C621 245 624 252 624 256C624 261 620 267 611 267C602 267 601 263 594 242C550 106 502 34 332 34L161 34L720 659C721 663 723 668 723 674Z" stroke="rgb(0,0,0)" stroke-opacity="1" stroke-width="8" fill="rgb(0,0,0)" fill-opacity="1"></path></g></g><g><g><g><g><text x="546.0250244140625" y="209.40000915527344" style="white-space:pre;stroke:none;fill:rgb(0,0,0);fill-opacity:1;font-size:15px;font-family:&quot;Times New Roman&quot;, Times, serif;font-weight:400;font-style:normal;dominant-baseline:text-before-edge;text-decoration:none;">stabilizers</text></g></g></g></g></g></g><g><g><g><text x="71.80001831054688" y="75.39999389648438" style="white-space:pre;stroke:none;fill:rgb(0,0,0);fill-opacity:1;font-size:15px;font-family:Arial, Helvetica, sans-serif;font-weight:400;font-style:normal;dominant-baseline:text-before-edge;text-decoration:none;">1</text></g></g></g><g><g><g><text x="71.80001831054688" y="155.40000915527344" style="white-space:pre;stroke:none;fill:rgb(0,0,0);fill-opacity:1;font-size:15px;font-family:Arial, Helvetica, sans-serif;font-weight:400;font-style:normal;dominant-baseline:text-before-edge;text-decoration:none;">2</text></g></g></g><g><g><g><text x="151.79998779296875" y="75.39999389648438" style="white-space:pre;stroke:none;fill:rgb(0,0,0);fill-opacity:1;font-size:15px;font-family:Arial, Helvetica, sans-serif;font-weight:400;font-style:normal;dominant-baseline:text-before-edge;text-decoration:none;">3</text></g></g></g><g><g><g><text x="147.79998779296875" y="154.40000915527344" style="white-space:pre;stroke:none;fill:rgb(0,0,0);fill-opacity:1;font-size:15px;font-family:Arial, Helvetica, sans-serif;font-weight:400;font-style:normal;dominant-baseline:text-before-edge;text-decoration:none;">4</text></g></g></g><g><g><g><text x="231.79998779296875" y="75.39999389648438" style="white-space:pre;stroke:none;fill:rgb(0,0,0);fill-opacity:1;font-size:15px;font-family:Arial, Helvetica, sans-serif;font-weight:400;font-style:normal;dominant-baseline:text-before-edge;text-decoration:none;">5</text></g></g></g><g><g><g><text x="231.79998779296875" y="155.40000915527344" style="white-space:pre;stroke:none;fill:rgb(0,0,0);fill-opacity:1;font-size:15px;font-family:Arial, Helvetica, sans-serif;font-weight:400;font-style:normal;dominant-baseline:text-before-edge;text-decoration:none;">6</text></g></g></g><g><g><g><text x="311.79998779296875" y="75.39999389648438" style="white-space:pre;stroke:none;fill:rgb(0,0,0);fill-opacity:1;font-size:15px;font-family:Arial, Helvetica, sans-serif;font-weight:400;font-style:normal;dominant-baseline:text-before-edge;text-decoration:none;">1</text></g></g></g><g><g><g><text x="311.79998779296875" y="155.40000915527344" style="white-space:pre;stroke:none;fill:rgb(0,0,0);fill-opacity:1;font-size:15px;font-family:Arial, Helvetica, sans-serif;font-weight:400;font-style:normal;dominant-baseline:text-before-edge;text-decoration:none;">2</text></g></g></g><g><g><g><text x="121.79998779296875" y="20.399993896484375" style="white-space:pre;stroke:none;fill:rgb(0,0,0);fill-opacity:1;font-size:15px;font-family:Arial, Helvetica, sans-serif;font-weight:400;font-style:normal;dominant-baseline:text-before-edge;text-decoration:none;">7</text></g></g></g><g><g><g><text x="121.79998779296875" y="99.40000915527344" style="white-space:pre;stroke:none;fill:rgb(0,0,0);fill-opacity:1;font-size:15px;font-family:Arial, Helvetica, sans-serif;font-weight:400;font-style:normal;dominant-baseline:text-before-edge;text-decoration:none;">8</text></g></g></g><g><g><g><text x="204.79998779296875" y="20.399993896484375" style="white-space:pre;stroke:none;fill:rgb(0,0,0);fill-opacity:1;font-size:15px;font-family:Arial, Helvetica, sans-serif;font-weight:400;font-style:normal;dominant-baseline:text-before-edge;text-decoration:none;">9</text></g></g></g><g><g><g><text x="201.79998779296875" y="100.40000915527344" style="white-space:pre;stroke:none;fill:rgb(0,0,0);fill-opacity:1;font-size:15px;font-family:Arial, Helvetica, sans-serif;font-weight:400;font-style:normal;dominant-baseline:text-before-edge;text-decoration:none;">10</text></g></g></g><g><g><g><text x="281.79998779296875" y="20.399993896484375" style="white-space:pre;stroke:none;fill:rgb(0,0,0);fill-opacity:1;font-size:15px;font-family:Arial, Helvetica, sans-serif;font-weight:400;font-style:normal;dominant-baseline:text-before-edge;text-decoration:none;">11</text></g></g></g><g><g><g><text x="281.79998779296875" y="100.40000915527344" style="white-space:pre;stroke:none;fill:rgb(0,0,0);fill-opacity:1;font-size:15px;font-family:Arial, Helvetica, sans-serif;font-weight:400;font-style:normal;dominant-baseline:text-before-edge;text-decoration:none;">12</text></g></g></g><g><g><g><text x="121.79998779296875" y="180.40000915527344" style="white-space:pre;stroke:none;fill:rgb(0,0,0);fill-opacity:1;font-size:15px;font-family:Arial, Helvetica, sans-serif;font-weight:400;font-style:normal;dominant-baseline:text-before-edge;text-decoration:none;">7</text></g></g></g><g><g><g><text x="204.79998779296875" y="180.40000915527344" style="white-space:pre;stroke:none;fill:rgb(0,0,0);fill-opacity:1;font-size:15px;font-family:Arial, Helvetica, sans-serif;font-weight:400;font-style:normal;dominant-baseline:text-before-edge;text-decoration:none;">9</text></g></g></g><g><g><g><text x="281.79998779296875" y="180.40000915527344" style="white-space:pre;stroke:none;fill:rgb(0,0,0);fill-opacity:1;font-size:15px;font-family:Arial, Helvetica, sans-serif;font-weight:400;font-style:normal;dominant-baseline:text-before-edge;text-decoration:none;">11</text></g></g></g></svg>
</svg>
