<svg xmlns="http://www.w3.org/2000/svg" xmlns:xlink="http://www.w3.org/1999/xlink" x="0" y="0" width="661.6000366210938" height="330.3999938964844" style="
        width:661.6000366210938px;
        height:330.3999938964844px;
        background: transparent;
        fill: none;
">
        <svg xmlns="http://www.w3.org/2000/svg"/>
        
        <svg xmlns="http://www.w3.org/2000/svg" class="role-diagram-draw-area"><g class="shapes-region" style="stroke: black; fill: none;"><g class="composite-shape"><path class="real" d=" M160,62.34 L360,62.34 L360,262.34 L160,262.34 Z" style="stroke-width: 1; stroke: none; fill: rgb(80, 227, 194); fill-opacity: 1;"/><path class="real" d=" M260,62.34 L260,262.34" style="stroke-width: 1; stroke: rgb(0, 0, 0); fill: none; fill-opacity: 1;"/><path class="real" d=" M160,162.34 L360,162.34" style="stroke-width: 1; stroke: rgb(0, 0, 0); fill: none; fill-opacity: 1;"/><path class="real" d=" M160,62.34 L360,62.34 L360,262.34 L160,262.34 Z" style="stroke-width: 1; stroke: rgb(0, 0, 0); fill: none; fill-opacity: 1;"/></g><g class="composite-shape"><path class="real" d=" M260,62.34 L360,62.34 L360,162.34 L260,162.34 Z" style="stroke-width: 1; stroke: none; fill: rgb(248, 231, 28); fill-opacity: 1;"/><path class="real" d="" style="stroke-width: 1; stroke: rgb(0, 0, 0); fill: none; fill-opacity: 1;"/><path class="real" d="" style="stroke-width: 1; stroke: rgb(0, 0, 0); fill: none; fill-opacity: 1;"/><path class="real" d=" M260,62.34 L360,62.34 L360,162.34 L260,162.34 Z" style="stroke-width: 1; stroke: rgb(0, 0, 0); fill: none; fill-opacity: 1;"/></g><g class="composite-shape"><path class="real" d=" M160,162.68 L260,162.68 L260,262.68 L160,262.68 Z" style="stroke-width: 1; stroke: none; fill: rgb(248, 231, 28); fill-opacity: 1;"/><path class="real" d="" style="stroke-width: 1; stroke: rgb(0, 0, 0); fill: none; fill-opacity: 1;"/><path class="real" d="" style="stroke-width: 1; stroke: rgb(0, 0, 0); fill: none; fill-opacity: 1;"/><path class="real" d=" M160,162.68 L260,162.68 L260,262.68 L160,262.68 Z" style="stroke-width: 1; stroke: rgb(0, 0, 0); fill: none; fill-opacity: 1;"/></g><g class="composite-shape"><path class="real" d=" M160,262.34 C154.51,265.85 148.36,267.81 141.86,267.81 C118.8,267.81 100.1,243.05 100.1,212.51 C100.1,181.96 118.8,157.2 141.86,157.2 C148.36,157.2 154.51,159.17 160,162.68 Z" style="stroke-width: 1; stroke: rgb(0, 0, 0); fill: rgb(80, 227, 194); fill-opacity: 1;"/></g><g class="composite-shape"><path class="real" d=" M160.34,62.34 C156.83,56.85 154.87,50.7 154.87,44.2 C154.87,21.14 179.63,2.44 210.17,2.44 C240.71,2.44 265.47,21.14 265.47,44.2 C265.47,50.7 263.51,56.85 260,62.34 Z" style="stroke-width: 1; stroke: rgb(0, 0, 0); fill: rgb(248, 231, 28); fill-opacity: 1;"/></g><g class="composite-shape"><path class="real" d=" M360,62.34 C365.49,58.83 371.64,56.87 378.14,56.87 C401.2,56.87 419.9,81.63 419.9,112.17 C419.9,142.71 401.2,167.47 378.14,167.47 C371.64,167.47 365.49,165.51 360,162 Z" style="stroke-width: 1; stroke: rgb(0, 0, 0); fill: rgb(80, 227, 194); fill-opacity: 1;"/></g><g class="composite-shape"><path class="real" d=" M360,262 C363.51,267.49 365.47,273.64 365.47,280.14 C365.47,303.2 340.71,321.9 310.17,321.9 C279.63,321.9 254.87,303.2 254.87,280.14 C254.87,273.64 256.83,267.49 260.34,262 Z" style="stroke-width: 1; stroke: rgb(0, 0, 0); fill: rgb(248, 231, 28); fill-opacity: 1;"/></g><g class="composite-shape"><path class="real" d=" M155,62 C155,59.24 157.24,57 160,57 C162.76,57 165,59.24 165,62 C165,64.76 162.76,67 160,67 C157.24,67 155,64.76 155,62 Z" style="stroke-width: 1; stroke: rgb(0, 0, 0); fill: rgb(0, 0, 0); fill-opacity: 1;"/></g><g class="composite-shape"><path class="real" d=" M355,62 C355,59.24 357.24,57 360,57 C362.76,57 365,59.24 365,62 C365,64.76 362.76,67 360,67 C357.24,67 355,64.76 355,62 Z" style="stroke-width: 1; stroke: rgb(0, 0, 0); fill: rgb(0, 0, 0); fill-opacity: 1;"/></g><g class="composite-shape"><path class="real" d=" M255,62 C255,59.24 257.24,57 260,57 C262.76,57 265,59.24 265,62 C265,64.76 262.76,67 260,67 C257.24,67 255,64.76 255,62 Z" style="stroke-width: 1; stroke: rgb(0, 0, 0); fill: rgb(0, 0, 0); fill-opacity: 1;"/></g><g class="composite-shape"><path class="real" d=" M255,62 C255,59.24 257.24,57 260,57 C262.76,57 265,59.24 265,62 C265,64.76 262.76,67 260,67 C257.24,67 255,64.76 255,62 Z" style="stroke-width: 1; stroke: rgb(0, 0, 0); fill: rgb(0, 0, 0); fill-opacity: 1;"/></g><g class="grouped-shape"><g class="composite-shape"><path class="real" d=" M155,162 C155,159.24 157.24,157 160,157 C162.76,157 165,159.24 165,162 C165,164.76 162.76,167 160,167 C157.24,167 155,164.76 155,162 Z" style="stroke-width: 1; stroke: rgb(0, 0, 0); fill: rgb(0, 0, 0); fill-opacity: 1;"/></g><g class="composite-shape"><path class="real" d=" M355,162 C355,159.24 357.24,157 360,157 C362.76,157 365,159.24 365,162 C365,164.76 362.76,167 360,167 C357.24,167 355,164.76 355,162 Z" style="stroke-width: 1; stroke: rgb(0, 0, 0); fill: rgb(0, 0, 0); fill-opacity: 1;"/></g><g class="composite-shape"><path class="real" d=" M255,162 C255,159.24 257.24,157 260,157 C262.76,157 265,159.24 265,162 C265,164.76 262.76,167 260,167 C257.24,167 255,164.76 255,162 Z" style="stroke-width: 1; stroke: rgb(0, 0, 0); fill: rgb(0, 0, 0); fill-opacity: 1;"/></g></g><g class="grouped-shape"><g class="composite-shape"><path class="real" d=" M155,262 C155,259.24 157.24,257 160,257 C162.76,257 165,259.24 165,262 C165,264.76 162.76,267 160,267 C157.24,267 155,264.76 155,262 Z" style="stroke-width: 1; stroke: rgb(0, 0, 0); fill: rgb(0, 0, 0); fill-opacity: 1;"/></g><g class="composite-shape"><path class="real" d=" M355,262 C355,259.24 357.24,257 360,257 C362.76,257 365,259.24 365,262 C365,264.76 362.76,267 360,267 C357.24,267 355,264.76 355,262 Z" style="stroke-width: 1; stroke: rgb(0, 0, 0); fill: rgb(0, 0, 0); fill-opacity: 1;"/></g><g class="composite-shape"><path class="real" d=" M255,262 C255,259.24 257.24,257 260,257 C262.76,257 265,259.24 265,262 C265,264.76 262.76,267 260,267 C257.24,267 255,264.76 255,262 Z" style="stroke-width: 1; stroke: rgb(0, 0, 0); fill: rgb(0, 0, 0); fill-opacity: 1;"/></g></g><g class="composite-shape"><path class="real" d=" M461,122 C461,117.58 464.58,114 469,114 L546.2,114 C550.62,114 554.2,117.58 554.2,122 L554.2,146 C554.2,150.42 550.62,154 546.2,154 L469,154 C464.58,154 461,150.42 461,146 Z" style="stroke-width: 1; stroke: rgb(0, 0, 0); fill: rgb(80, 227, 194); fill-opacity: 1;"/></g><g class="composite-shape"><path class="real" d=" M457,84 C457,81.24 459.24,79 462,79 C464.76,79 467,81.24 467,84 C467,86.76 464.76,89 462,89 C459.24,89 457,86.76 457,84 Z" style="stroke-width: 1; stroke: rgb(0, 0, 0); fill: rgb(0, 0, 0); fill-opacity: 1;"/></g><g class="composite-shape"><path class="real" d=" M462,180 C462,175.58 465.58,172 470,172 L547.2,172 C551.62,172 555.2,175.58 555.2,180 L555.2,204 C555.2,208.42 551.62,212 547.2,212 L470,212 C465.58,212 462,208.42 462,204 Z" style="stroke-width: 1; stroke: rgb(0, 0, 0); fill: rgb(248, 231, 28); fill-opacity: 1;"/></g><g/></g><g/><g/><g/></svg>
        <svg xmlns="http://www.w3.org/2000/svg" xmlns:xlink="http://www.w3.org/1999/xlink" width="660" height="328.8000183105469" style="width:660px;height:328.8000183105469px;font-family:LatinModern-Math, LatinModern, Asana-Math, Asana;background:transparent;"><g><g><g><text x="479.79998779296875" y="75.4000015258789" style="white-space:pre;stroke:none;fill:rgb(0,0,0);fill-opacity:1;font-size:15px;font-family:&quot;Times New Roman&quot;, Times, serif;font-weight:400;font-style:normal;dominant-baseline:text-before-edge;text-decoration:none;">Data qubits</text></g></g></g><g><g><g><g><g><g><g transform="matrix(1,0,0,1,470.79998779296875,138.8000030517578)"><path transform="matrix(0.015,0,0,-0.015,0,0)" d="M851 672C851 672 851 683 838 683C808 683 775 680 744 680C707 680 669 683 633 683C627 683 614 683 614 663C614 656 619 653 626 652C635 651 666 649 666 621C666 607 655 594 647 585L485 411L401 610L396 623C396 629 413 648 455 652C465 653 475 654 475 671C475 683 463 683 460 683C419 683 376 680 334 680C309 680 247 683 222 683C216 683 204 683 204 663C204 652 214 652 227 652C287 652 293 642 302 620L420 341L209 114C203 109 202 108 196 103C147 50 100 34 49 31C36 30 27 30 27 11C27 11 27 0 40 0C70 0 103 3 134 3C171 3 210 0 246 0C252 0 264 0 264 20C264 30 252 31 252 31C243 32 212 34 212 62C212 78 227 94 239 107L341 215L431 313L532 74L537 60C537 52 518 35 479 31C468 30 459 29 459 12C459 0 470 0 474 0L600 3C625 3 686 0 711 0C718 0 730 0 730 19C730 31 720 31 712 31C645 32 643 35 626 75L497 384C565 454 670 573 702 601C731 625 769 649 829 652C842 653 851 653 851 672Z" stroke="rgb(0,0,0)" stroke-opacity="1" stroke-width="8" fill="rgb(0,0,0)" fill-opacity="1"></path></g></g></g></g></g><g><text x="483.22503662109375" y="125.40000915527344" style="white-space:pre;stroke:none;fill:rgb(0,0,0);fill-opacity:1;font-size:15px;font-family:&quot;Times New Roman&quot;, Times, serif;font-weight:400;font-style:normal;dominant-baseline:text-before-edge;text-decoration:none;"> stablizers</text></g></g></g><g><g><g><text x="162.79998779296875" y="64.4000015258789" style="white-space:pre;stroke:none;fill:rgb(0,0,0);fill-opacity:1;font-size:15px;font-family:Arial, Helvetica, sans-serif;font-weight:400;font-style:normal;dominant-baseline:text-before-edge;text-decoration:none;">1</text></g></g></g><g><g><g><text x="262.79998779296875" y="64.4000015258789" style="white-space:pre;stroke:none;fill:rgb(0,0,0);fill-opacity:1;font-size:15px;font-family:Arial, Helvetica, sans-serif;font-weight:400;font-style:normal;dominant-baseline:text-before-edge;text-decoration:none;">2</text></g></g></g><g><g><g><text x="362.79998779296875" y="64.4000015258789" style="white-space:pre;stroke:none;fill:rgb(0,0,0);fill-opacity:1;font-size:15px;font-family:Arial, Helvetica, sans-serif;font-weight:400;font-style:normal;dominant-baseline:text-before-edge;text-decoration:none;">3</text></g></g></g><g><g><g><text x="162.79998779296875" y="164.40000915527344" style="white-space:pre;stroke:none;fill:rgb(0,0,0);fill-opacity:1;font-size:15px;font-family:Arial, Helvetica, sans-serif;font-weight:400;font-style:normal;dominant-baseline:text-before-edge;text-decoration:none;">4</text></g></g></g><g><g><g><text x="262.79998779296875" y="164.40000915527344" style="white-space:pre;stroke:none;fill:rgb(0,0,0);fill-opacity:1;font-size:15px;font-family:Arial, Helvetica, sans-serif;font-weight:400;font-style:normal;dominant-baseline:text-before-edge;text-decoration:none;">5</text></g></g></g><g><g><g><text x="362.79998779296875" y="164.40000915527344" style="white-space:pre;stroke:none;fill:rgb(0,0,0);fill-opacity:1;font-size:15px;font-family:Arial, Helvetica, sans-serif;font-weight:400;font-style:normal;dominant-baseline:text-before-edge;text-decoration:none;">6</text></g></g></g><g><g><g><text x="162.79998779296875" y="264.3999938964844" style="white-space:pre;stroke:none;fill:rgb(0,0,0);fill-opacity:1;font-size:15px;font-family:Arial, Helvetica, sans-serif;font-weight:400;font-style:normal;dominant-baseline:text-before-edge;text-decoration:none;">7</text></g></g></g><g><g><g><text x="262.79998779296875" y="264.3999938964844" style="white-space:pre;stroke:none;fill:rgb(0,0,0);fill-opacity:1;font-size:15px;font-family:Arial, Helvetica, sans-serif;font-weight:400;font-style:normal;dominant-baseline:text-before-edge;text-decoration:none;">8</text></g></g></g><g><g><g><text x="362.79998779296875" y="264.3999938964844" style="white-space:pre;stroke:none;fill:rgb(0,0,0);fill-opacity:1;font-size:15px;font-family:Arial, Helvetica, sans-serif;font-weight:400;font-style:normal;dominant-baseline:text-before-edge;text-decoration:none;">9</text></g></g></g><g><g><g><g><g><g><g transform="matrix(1,0,0,1,471.79998779296875,196.8000030517578)"><path transform="matrix(0.015,0,0,-0.015,0,0)" d="M723 674C723 683 718 683 698 683L276 683C252 683 251 682 245 663L190 483C188 478 187 469 187 469C187 469 187 458 199 458C208 458 210 465 212 468C250 586 302 652 458 652L621 652L62 27C62 27 58 12 58 9C58 0 65 0 83 0L518 0C542 0 543 1 549 20L620 241C621 245 624 252 624 256C624 261 620 267 611 267C602 267 601 263 594 242C550 106 502 34 332 34L161 34L720 659C721 663 723 668 723 674Z" stroke="rgb(0,0,0)" stroke-opacity="1" stroke-width="8" fill="rgb(0,0,0)" fill-opacity="1"></path></g></g></g></g></g><g><text x="482.04998779296875" y="183.40000915527344" style="white-space:pre;stroke:none;fill:rgb(0,0,0);fill-opacity:1;font-size:15px;font-family:&quot;Times New Roman&quot;, Times, serif;font-weight:400;font-style:normal;dominant-baseline:text-before-edge;text-decoration:none;"> stablizers</text></g></g></g></svg>
</svg>
